# xmcd CD database file
#
# Track frame offsets:
#	150
#	16655
#	34325
#	48915
#	72372
#	93852
#	111937
#	133025
#	150280
#	170245
#	191722
#
# Disc length: 2813 seconds
#
# Revision: 2
# Processed by: cddbd v1.5PL3 Copyright (c) Steve Scherf et al.
# Submitted via: CDex 1.40Release
#
DISCID=8d0afb0b
DTITLE=Jen Wood - Traveling Through Roots
DYEAR=2001
DGENRE=Country
TTITLE0=In 3-D
TTITLE1=Weary Eyes
TTITLE2=Same Speed
TTITLE3=Your Selfish Habit
TTITLE4=My Mistake
TTITLE5=Mimic
TTITLE6=Fitting Into Fake
TTITLE7=Learning to Forget
TTITLE8=Joyful
TTITLE9=Interview
TTITLE10=Unfinished Work
EXTD=Japanese release licensed by Tree Records YEAR: 2001 ID3G: 2
EXTT0=
EXTT1=
EXTT2=
EXTT3=
EXTT4=
EXTT5=
EXTT6=
EXTT7=
EXTT8=
EXTT9=
EXTT10=
PLAYORDER=
